<svg xmlns="http://www.w3.org/2000/svg"
 xmlns:xlink="http://www.w3.org/1999/xlink"
 width="18px" height="50px"  viewBox="0 0 18 50">
<path fill-rule="evenodd"  fill="#ec644b"
 d="M2.1939697,46.365723 C2.1939697,46.365723 14.980835,24.656738 14.980835,24.656738 C15.208618,24.27002 15.578003,24.27002 15.805786,24.656738 C16.03357,25.043945 16.03357,25.67041 15.805786,26.057617 C15.805786,26.057617 3.018921,47.766113 3.018921,47.766113 C2.7910156,48.15332 2.421753,48.15332 2.1939697,47.766113 C1.9661865,47.379395 1.9661865,46.751953 2.1939697,46.365723 ZM2.158081,3.71875 C2.158081,3.71875 14.995117,25.513184 14.995117,25.513184 C15.223877,25.901855 15.5946045,25.901855 15.823242,25.513184 C16.052002,25.125 16.052002,24.496094 15.823242,24.106934 C15.823242,24.106934 2.9863281,2.3129883 2.9863281,2.3129883 C2.7576904,1.925293 2.3868408,1.925293 2.158081,2.3129883 C1.9294434,2.7016602 1.9294434,3.331543 2.158081,3.71875 Z"/>
</svg>