<svg xmlns="http://www.w3.org/2000/svg"
 xmlns:xlink="http://www.w3.org/1999/xlink"
 width="18px" height="50px"  viewBox="0 0 18 50">
<path fill-rule="evenodd"  fill="#ec644b"
 d="M15.805786,46.333984 C15.805786,46.333984 3.0188599,24.625488 3.0188599,24.625488 C2.7911377,24.23877 2.421692,24.23877 2.1939697,24.625488 C1.9661255,25.011719 1.9661255,25.639648 2.1939697,26.025879 C2.1939697,26.025879 14.980774,47.734863 14.980774,47.734863 C15.208618,48.12207 15.577942,48.12207 15.805786,47.734863 C16.03357,47.348145 16.03357,46.720703 15.805786,46.333984 ZM15.841614,3.6879883 C15.841614,3.6879883 3.0045776,25.481934 3.0045776,25.481934 C2.775879,25.870117 2.4050903,25.870117 2.1764526,25.481934 C1.9476929,25.09375 1.9476929,24.463867 2.1764526,24.075684 C2.1764526,24.075684 15.013428,2.2817383 15.013428,2.2817383 C15.242065,1.894043 15.612854,1.894043 15.841614,2.2817383 C16.070251,2.6704102 16.070251,3.300293 15.841614,3.6879883 Z"/>
</svg>